<?xml version="1.0"?>
<svg width="108" height="46" xmlns="http://www.w3.org/2000/svg" xmlns:svg="http://www.w3.org/2000/svg">
 <g class="layer">
  <title>Layer 1</title>
  <path d="m5.86,10.63l-1.78,-1.08c-1.12,-0.67 -1.92,-1.34 -2.39,-2c-0.47,-0.66 -0.71,-1.42 -0.71,-2.28c0,-1.29 0.45,-2.34 1.34,-3.14c0.9,-0.81 2.06,-1.21 3.49,-1.21c1.37,0 2.62,0.38 3.76,1.15l0,2.66c-1.18,-1.14 -2.44,-1.7 -3.8,-1.7c-0.77,0 -1.4,0.18 -1.89,0.54c-0.49,0.35 -0.74,0.8 -0.74,1.36c0,0.49 0.18,0.95 0.54,1.38c0.36,0.43 0.94,0.88 1.75,1.35l1.79,1.05c2,1.19 3,2.7 3,4.55c0,1.31 -0.44,2.38 -1.33,3.2c-0.87,0.82 -2.01,1.23 -3.42,1.23c-1.61,0 -3.09,-0.5 -4.42,-1.49l0,-2.98c1.27,1.6 2.74,2.41 4.4,2.41c0.73,0 1.34,-0.21 1.83,-0.61c0.49,-0.42 0.74,-0.93 0.74,-1.55c0,-1 -0.72,-1.95 -2.16,-2.84zm18.48,-9.5l2.34,0l0,16.37l-2.34,0l0,-7.12l-9.2,0l0,7.12l-2.34,0l0,-16.37l2.34,0l0,7.08l9.2,0l0,-7.08zm14,-0.24c2.54,0 4.64,0.81 6.32,2.41c1.69,1.6 2.53,3.61 2.53,6.02c0,2.41 -0.85,4.41 -2.55,6c-1.7,1.58 -3.84,2.37 -6.43,2.37c-2.46,0 -4.52,-0.79 -6.17,-2.37c-1.64,-1.59 -2.46,-3.57 -2.46,-5.95c0,-2.45 0.83,-4.47 2.48,-6.07c1.66,-1.6 3.75,-2.41 6.28,-2.41zm0.1,2.23c-1.88,0 -3.42,0.59 -4.63,1.76c-1.2,1.17 -1.81,2.67 -1.81,4.49c0,1.76 0.61,3.23 1.82,4.4c1.21,1.18 2.73,1.76 4.55,1.76c1.83,0 3.35,-0.6 4.57,-1.79c1.22,-1.2 1.84,-2.69 1.84,-4.47c0,-1.73 -0.62,-3.19 -1.84,-4.37c-1.22,-1.19 -2.72,-1.78 -4.5,-1.78zm11.49,14.38l0,-16.39l5.2,0c1.56,0 2.8,0.42 3.73,1.26c0.93,0.84 1.4,1.98 1.4,3.4c0,0.95 -0.24,1.8 -0.72,2.53c-0.47,0.74 -1.13,1.27 -1.95,1.61c-0.83,0.32 -2.02,0.49 -3.57,0.49l-1.73,0l0,7.1l-2.36,0zm4.78,-14.31l-2.42,0l0,5.12l2.57,0c0.95,0 1.68,-0.22 2.2,-0.67c0.51,-0.45 0.77,-1.09 0.77,-1.93c0,-1.68 -1.04,-2.52 -3.12,-2.52zm-37.83,37.7c0,1.4 -0.49,2.52 -1.45,3.36c-0.95,0.83 -2.29,1.25 -4,1.25l-9.39,0l0,-16.24l7.85,0c1.02,0 1.9,0.1 2.65,0.29c0.76,0.2 1.37,0.47 1.83,0.81c0.46,0.34 0.8,0.73 1.03,1.19c0.23,0.47 0.34,0.97 0.34,1.52c0,0.59 -0.12,1.14 -0.35,1.65c-0.24,0.5 -0.53,0.91 -0.88,1.24c-0.35,0.32 -0.69,0.55 -1.05,0.68c1.11,0.44 1.96,0.99 2.54,1.66c0.58,0.67 0.88,1.53 0.88,2.59zm-5.72,-6.96c0,-0.78 -0.26,-1.3 -0.78,-1.55c-0.51,-0.26 -1.32,-0.39 -2.41,-0.39l-1.03,0l0,3.89l1.05,0c1.12,0 1.92,-0.13 2.42,-0.39c0.5,-0.26 0.75,-0.78 0.75,-1.56zm0.79,6.77c0,-1.4 -1,-2.09 -3.02,-2.09l-1.99,0l0,4.16l1.99,0c2.02,0 3.02,-0.69 3.02,-2.07zm25.2,4.8l-5.02,0l-1.32,-3.29l-7.06,0l-1.34,3.29l-5.02,0l7.18,-16.24l5.42,0l7.16,16.24zm-7.47,-6.12l-2.38,-5.93l-2.4,5.93l4.78,0zm26.71,6.12l-5.98,0l-6.21,-7.61l0,7.61l-4.9,0l0,-16.24l4.9,0l0,7.26l5.89,-7.26l5.32,0l-6.05,7.6l7.03,8.64zm14.38,0l-12.25,0l0,-16.24l12.05,0l0,3.26l-7.15,0l0,2.97l6.82,0l0,3.27l-6.82,0l0,3.47l7.35,0l0,3.27zm19.02,0l-5.26,0l-1.28,-2.88c-0.47,-1.06 -0.89,-1.83 -1.27,-2.31c-0.37,-0.49 -0.74,-0.81 -1.1,-0.94c-0.35,-0.14 -0.81,-0.21 -1.37,-0.21l-0.55,0l0,6.34l-4.9,0l0,-16.24l8.33,0c1.35,0 2.45,0.27 3.31,0.82c0.86,0.55 1.48,1.21 1.85,1.99c0.38,0.78 0.58,1.52 0.58,2.23c0,0.82 -0.17,1.51 -0.49,2.08c-0.31,0.57 -0.64,0.98 -0.99,1.23c-0.35,0.26 -0.75,0.51 -1.19,0.74c0.53,0.31 0.96,0.67 1.29,1.09c0.35,0.42 0.81,1.26 1.4,2.53l1.64,3.53zm-6.66,-11.11c0,-0.75 -0.24,-1.27 -0.74,-1.57c-0.49,-0.3 -1.29,-0.44 -2.4,-0.44l-1.03,0l0,3.91l1.06,0c1.19,0 2.01,-0.13 2.44,-0.39c0.45,-0.26 0.67,-0.77 0.67,-1.51zm24.03,-5.13l-6.37,8.8l0,7.44l-4.9,0l0,-7.35l-6.48,-8.89l5.09,0l3.73,5.11l3.74,-5.11l5.19,0z" fill="#000000" id="svg_1"/>
 </g>
</svg>